<svg xmlns="http://www.w3.org/2000/svg" xmlns:xlink="http://www.w3.org/1999/xlink" width="19" height="13" viewBox="0 0 19 13">
  <defs>
    <style>
      .cls-1 {
        fill: #fff;
        fill-rule: evenodd;
        filter: url(#filter);
      }
    </style>
    <filter id="filter" x="0" y="0" width="19" height="13" filterUnits="userSpaceOnUse">
      <feFlood result="flood" flood-color="#323232"/>
      <feComposite result="composite" operator="in" in2="SourceGraphic"/>
      <feBlend result="blend" in2="SourceGraphic"/>
    </filter>
  </defs>
  <path id="MAIL" class="cls-1" d="M12.95,5.832l5.784-5.577A0.881,0.881,0,0,1,19,.886V12.114a0.878,0.878,0,0,1-.24.6ZM0.3,0.23A0.887,0.887,0,0,1,.891,0H18.109A0.887,0.887,0,0,1,18.7.23L9.5,7.386ZM0.24,12.715a0.879,0.879,0,0,1-.24-0.6V0.886A0.881,0.881,0,0,1,.265.256L6.05,5.832ZM9.5,9.159l2.415-2.328,6.8,5.926a0.889,0.889,0,0,1-.61.244H0.891A0.889,0.889,0,0,1,.28,12.756l6.8-5.926Z"/>
</svg>
