<svg xmlns="http://www.w3.org/2000/svg" xmlns:xlink="http://www.w3.org/1999/xlink" width="14" height="21" viewBox="0 0 14 21">
  <defs>
    <style>
      .cls-1 {
        fill-rule: evenodd;
        filter: url(#filter);
      }
    </style>
    <filter id="filter" x="0" y="0" width="14" height="21" filterUnits="userSpaceOnUse">
      <feFlood result="flood" flood-color="#323232"/>
      <feComposite result="composite" operator="in" in2="SourceGraphic"/>
      <feBlend result="blend" in2="SourceGraphic"/>
    </filter>
  </defs>
  <path id="Phone_Auricular._Attribute_as_Freepik_from_Flaticon.com" data-name="Phone Auricular. Attribute as Freepik from Flaticon.com" class="cls-1" d="M5.6,0.965L6.592,3.038A1.679,1.679,0,0,1,6.06,5.114L4.9,5.881a0.578,0.578,0,0,0-.2.708l2.012,4.2L8.8,15.132a0.578,0.578,0,0,0,.288.271,8.6,8.6,0,0,0,1.883-.075L11.2,15.31a2.161,2.161,0,0,1,2.04,1.224l0.638,1.534a1.71,1.71,0,0,1-.7,2.106c-5.286,2.764-7.3-2.288-7.3-2.288L3.224,12.358,0.645,6.974S-2.035,2.221,3.555.093A1.707,1.707,0,0,1,5.6.965Z"/>
</svg>
